<?xml version="1.0" encoding="UTF-8" standalone="no"?>
<svg
   xmlns:dc="http://purl.org/dc/elements/1.1/"
   xmlns:cc="http://creativecommons.org/ns#"
   xmlns:rdf="http://www.w3.org/1999/02/22-rdf-syntax-ns#"
   xmlns:svg="http://www.w3.org/2000/svg"
   xmlns="http://www.w3.org/2000/svg"
   version="1.1"
   width="16"
   height="16">
<radialGradient id="radialGradientRed" gradientUnits="userSpaceOnUse" gradientTransform="matrix(1.5,0,0,2,-8,-6.5)"
       cx="10.733127"
       cy="7.4535599"
       fx="10.733127"
       fy="7.4535599"
       r="3.3541019" >
    <stop offset="0%" stop-opacity="2" stop-color="#FF5555" id="stop2" />
    <stop offset="100%" stop-opacity="0" stop-color="#FF5555" id="stop4" />
  </radialGradient>
<radialGradient id="radialGradientWhite" gradientUnits="userSpaceOnUse" gradientTransform="matrix(1.5,0,0,2,-8,-6.5)"
       cx="10.733127"
       cy="7.4535599"
       fx="10.733127"
       fy="7.4535599"
       r="3.3541019" >
    <stop offset="0%" stop-opacity="2" stop-color="#FFFFFF" id="stop2" />
    <stop offset="100%" stop-opacity="0" stop-color="#FFFFFF" id="stop4" />
  </radialGradient>
  
  <path
     style="fill:#FF5555"
	 d="M 8,7.5 a0.1,0.1 0 0,0 0,1" />
  <path
     style="fill:#FFFFFF"
	 d="M 8,8.5 a0.1,0.1 0 0,0 0,-1" />
  <!--<path
     style="fill:#999999"
	 d="M 8,7.5 C 8.25,7.5 8.5,7.75 8.5,8 C 8.5,8.25 8.25,8.5 8,8.5 L 8,7.5" />-->
  <path
     style="opacity:0.4;vector-effect:none;fill:url(#radialGradientRed);fill-opacity:1;stroke:none;stroke-width:1;stroke-linecap:butt;stroke-linejoin:miter;stroke-miterlimit:4;stroke-dasharray:none;stroke-dashoffset:0;stroke-opacity:1"
     d="M 4.5,8.5 C 5,9 7,9.5 8,9.5 L 8,1.5 C 7,1.5 3,5 3,6 C 3,6.5 4,8 4.5,8.5 Z" />
  <path
     style="opacity:0.4;vector-effect:none;fill:url(#radialGradientWhite);fill-opacity:1;stroke:none;stroke-width:1;stroke-linecap:butt;stroke-linejoin:miter;stroke-miterlimit:4;stroke-dasharray:none;stroke-dashoffset:0;stroke-opacity:1"
     d="M 8,9.5 C 9,9.5 11,9 11.5,8.5 C 12,8 13,6.5 13,6 C 13,5 9,1.5 8,1.5 L 8,9.5 Z" />
</svg>
